<svg width="900" height="1100" viewBox="0 0 900 1100" fill="none" xmlns="http://www.w3.org/2000/svg">
  <defs>
    <linearGradient id="portraitBg2" x1="0" y1="0" x2="900" y2="1100" gradientUnits="userSpaceOnUse">
      <stop stop-color="#171512"/>
      <stop offset="1" stop-color="#0B0D11"/>
    </linearGradient>
    <radialGradient id="portraitGlow2" cx="0" cy="0" r="1" gradientUnits="userSpaceOnUse" gradientTransform="translate(500 380) rotate(90) scale(410 320)">
      <stop stop-color="#E8C98B" stop-opacity="0.22"/>
      <stop offset="1" stop-color="#E8C98B" stop-opacity="0"/>
    </radialGradient>
  </defs>
  <rect width="900" height="1100" rx="48" fill="url(#portraitBg2)"/>
  <rect x="54" y="54" width="792" height="992" rx="38" fill="url(#portraitGlow2)"/>
  <circle cx="465" cy="290" r="98" fill="#F1D8A6" fill-opacity="0.9"/>
  <path d="M342 842C348 728 390 664 465 664C540 664 582 728 588 842" fill="#EFD29F" fill-opacity="0.88"/>
  <path d="M343 485C343 425 390 378 465 378C540 378 587 425 587 485C587 543 548 596 465 596C382 596 343 543 343 485Z" fill="#EFD29F"/>
  <path d="M308 836C334 760 385 720 465 720C545 720 596 760 622 836" stroke="#EFD29F" stroke-opacity="0.95" stroke-width="38" stroke-linecap="round"/>
  <path d="M258 922C294 828 365 790 465 790C565 790 636 828 672 922" stroke="#E8C98B" stroke-opacity="0.2" stroke-width="64" stroke-linecap="round"/>
  <path d="M372 468C395 438 425 420 465 420C505 420 535 438 558 468" stroke="#2A3038" stroke-width="24" stroke-linecap="round"/>
  <rect x="324" y="878" width="282" height="34" rx="17" fill="#E8C98B" fill-opacity="0.2"/>
  <rect x="340" y="930" width="250" height="18" rx="9" fill="#F1D8A6" fill-opacity="0.8"/>
</svg>
