<svg width="1600" height="1200" viewBox="0 0 1600 1200" fill="none" xmlns="http://www.w3.org/2000/svg">
  <defs>
    <linearGradient id="bg" x1="0" y1="0" x2="1600" y2="1200" gradientUnits="userSpaceOnUse">
      <stop stop-color="#0A0C10"/>
      <stop offset="0.52" stop-color="#11151B"/>
      <stop offset="1" stop-color="#07090C"/>
    </linearGradient>
    <radialGradient id="glow" cx="0" cy="0" r="1" gradientUnits="userSpaceOnUse" gradientTransform="translate(1170 260) rotate(90) scale(260 320)">
      <stop stop-color="#D7B37A" stop-opacity="0.34"/>
      <stop offset="1" stop-color="#D7B37A" stop-opacity="0"/>
    </radialGradient>
    <linearGradient id="line" x1="0" y1="0" x2="1600" y2="1200" gradientUnits="userSpaceOnUse">
      <stop stop-color="#FFFFFF" stop-opacity="0.08"/>
      <stop offset="1" stop-color="#FFFFFF" stop-opacity="0.02"/>
    </linearGradient>
  </defs>
  <rect width="1600" height="1200" fill="url(#bg)"/>
  <circle cx="1180" cy="250" r="320" fill="url(#glow)"/>
  <circle cx="280" cy="220" r="180" fill="#FFFFFF" fill-opacity="0.03"/>
  <circle cx="1380" cy="870" r="220" fill="#FFFFFF" fill-opacity="0.035"/>
  <g opacity="0.7">
    <path d="M-50 1000C270 720 520 660 830 720C1100 770 1310 700 1700 390" stroke="url(#line)" stroke-width="2"/>
    <path d="M-50 860C240 590 560 540 840 600C1120 660 1380 610 1700 310" stroke="url(#line)" stroke-width="1.5"/>
    <path d="M-50 1140C250 900 560 840 800 890C1090 950 1320 920 1700 610" stroke="url(#line)" stroke-width="1.3"/>
  </g>
  <g opacity="0.9">
    <circle cx="350" cy="350" r="190" stroke="#D7B37A" stroke-opacity="0.11" stroke-width="1.5"/>
    <circle cx="350" cy="350" r="118" stroke="#FFFFFF" stroke-opacity="0.08" stroke-width="1.5"/>
    <circle cx="1260" cy="760" r="160" stroke="#D7B37A" stroke-opacity="0.12" stroke-width="1.5"/>
    <circle cx="1260" cy="760" r="92" stroke="#FFFFFF" stroke-opacity="0.08" stroke-width="1.5"/>
  </g>
  <g opacity="0.28">
    <path d="M120 170H1480" stroke="#FFFFFF" stroke-opacity="0.08" stroke-width="1"/>
    <path d="M240 200V1060" stroke="#FFFFFF" stroke-opacity="0.05" stroke-width="1"/>
    <path d="M1360 100V1120" stroke="#FFFFFF" stroke-opacity="0.05" stroke-width="1"/>
  </g>
</svg>
