<svg width="1200" height="1200" viewBox="0 0 1200 1200" fill="none" xmlns="http://www.w3.org/2000/svg">
  <defs>
    <radialGradient id="heroGlow" cx="0" cy="0" r="1" gradientUnits="userSpaceOnUse" gradientTransform="translate(600 600) rotate(90) scale(460)">
      <stop stop-color="#EBD3A0" stop-opacity="0.4"/>
      <stop offset="0.45" stop-color="#D7B37A" stop-opacity="0.16"/>
      <stop offset="1" stop-color="#0A0C10" stop-opacity="0"/>
    </radialGradient>
    <linearGradient id="strap" x1="530" y1="130" x2="670" y2="1070" gradientUnits="userSpaceOnUse">
      <stop stop-color="#12151B"/>
      <stop offset="0.5" stop-color="#242A33"/>
      <stop offset="1" stop-color="#0B0D11"/>
    </linearGradient>
    <linearGradient id="caseGold" x1="410" y1="350" x2="790" y2="860" gradientUnits="userSpaceOnUse">
      <stop stop-color="#F7E7BC"/>
      <stop offset="0.43" stop-color="#C9A060"/>
      <stop offset="1" stop-color="#8F6336"/>
    </linearGradient>
    <linearGradient id="dial" x1="490" y1="440" x2="710" y2="720" gradientUnits="userSpaceOnUse">
      <stop stop-color="#1C2128"/>
      <stop offset="1" stop-color="#0A0D11"/>
    </linearGradient>
    <linearGradient id="glass" x1="500" y1="430" x2="700" y2="710" gradientUnits="userSpaceOnUse">
      <stop stop-color="#FFFFFF" stop-opacity="0.28"/>
      <stop offset="0.4" stop-color="#FFFFFF" stop-opacity="0.05"/>
      <stop offset="1" stop-color="#FFFFFF" stop-opacity="0"/>
    </linearGradient>
  </defs>
  <rect width="1200" height="1200" fill="url(#heroGlow)"/>
  <g opacity="0.92">
    <rect x="520" y="120" width="160" height="180" rx="34" fill="url(#strap)"/>
    <rect x="520" y="900" width="160" height="180" rx="34" fill="url(#strap)"/>
    <rect x="470" y="290" width="260" height="620" rx="110" fill="url(#caseGold)"/>
    <rect x="492" y="330" width="216" height="540" rx="92" fill="#151920"/>
    <rect x="512" y="350" width="176" height="500" rx="78" fill="url(#dial)"/>
    <rect x="506" y="344" width="188" height="512" rx="84" stroke="#FFFFFF" stroke-opacity="0.08" stroke-width="2"/>
    <circle cx="600" cy="600" r="142" stroke="#D7B37A" stroke-opacity="0.3" stroke-width="2"/>
    <circle cx="600" cy="600" r="110" stroke="#FFFFFF" stroke-opacity="0.06" stroke-width="1.5"/>
    <circle cx="600" cy="600" r="78" stroke="#D7B37A" stroke-opacity="0.16" stroke-width="1.5"/>
    <path d="M600 494V600L660 650" stroke="#F7E7BC" stroke-width="6" stroke-linecap="round" stroke-linejoin="round"/>
    <path d="M600 600L556 562" stroke="#F7E7BC" stroke-width="5" stroke-linecap="round"/>
    <circle cx="600" cy="600" r="10" fill="#F7E7BC"/>
    <path d="M600 470V450" stroke="#F7E7BC" stroke-width="5" stroke-linecap="round"/>
    <path d="M600 730V750" stroke="#F7E7BC" stroke-width="5" stroke-linecap="round"/>
    <path d="M460 600H440" stroke="#F7E7BC" stroke-width="5" stroke-linecap="round"/>
    <path d="M760 600H740" stroke="#F7E7BC" stroke-width="5" stroke-linecap="round"/>
    <rect x="552" y="258" width="96" height="30" rx="14" fill="#B58A51"/>
    <rect x="552" y="912" width="96" height="30" rx="14" fill="#B58A51"/>
    <rect x="670" y="445" width="30" height="32" rx="12" fill="#D7B37A"/>
    <rect x="500" y="720" width="22" height="18" rx="9" fill="#D7B37A"/>
    <rect x="678" y="720" width="22" height="18" rx="9" fill="#D7B37A"/>
    <path d="M520 510C565 470 634 462 676 498" stroke="#FFFFFF" stroke-opacity="0.15" stroke-width="5" stroke-linecap="round"/>
    <path d="M530 760C582 800 626 798 670 764" stroke="#FFFFFF" stroke-opacity="0.14" stroke-width="5" stroke-linecap="round"/>
    <ellipse cx="600" cy="576" rx="130" ry="170" fill="url(#glass)"/>
  </g>
</svg>
